<svg width="24" height="24" viewBox="0 0 24 24" fill="none" xmlns="http://www.w3.org/2000/svg">
<path fill-rule="evenodd" clip-rule="evenodd" d="M22 12C22 17.5228 17.5228 22 12 22C6.47715 22 2 17.5228 2 12C2 6.47715 6.47715 2 12 2C17.5228 2 22 6.47715 22 12ZM24 12C24 18.6274 18.6274 24 12 24C5.37258 24 0 18.6274 0 12C0 5.37258 5.37258 0 12 0C18.6274 0 24 5.37258 24 12ZM11.6055 19.5381H12.792V17.9121C14.0518 17.8008 15.0127 17.4229 15.6748 16.7783C16.3369 16.1338 16.668 15.3252 16.668 14.3525C16.668 13.667 16.5068 13.0693 16.1846 12.5596C15.8682 12.0498 15.5107 11.707 15.1123 11.5312C14.7139 11.3555 13.9404 11.1035 12.792 10.7754V7.70801C13.6006 7.77832 14.1572 8.26465 14.4619 9.16699L16.2461 8.78906C15.7656 7.22461 14.6143 6.3252 12.792 6.09082V4.8252H11.6055V6.09082C9.11523 6.39551 7.87012 7.53516 7.87012 9.50977C7.87012 10.2715 8.10449 10.9277 8.57324 11.4785C9.04199 12.0234 10.0527 12.4746 11.6055 12.832V16.3037C10.416 16.21 9.65137 15.5449 9.31152 14.3086L7.42188 14.748C8.03125 16.6758 9.42578 17.7305 11.6055 17.9121V19.5381ZM10.3223 8.09473C10.668 7.84277 11.0957 7.71387 11.6055 7.70801V10.6611C10.4102 10.5029 9.8125 10.0137 9.8125 9.19336C9.8125 8.70703 9.98242 8.34082 10.3223 8.09473ZM14.1719 15.8203C13.8027 16.1367 13.3428 16.2979 12.792 16.3037V12.9375C14.0869 13.1777 14.7344 13.7256 14.7344 14.5811C14.7344 15.0908 14.5469 15.5039 14.1719 15.8203Z" fill="white"/>
</svg>
