<svg width="268" height="40" viewBox="0 0 268 40" fill="none" xmlns="http://www.w3.org/2000/svg">
<g clip-path="url(#clip0_34_6)">
<path fill-rule="evenodd" clip-rule="evenodd" d="M5 10C5 4.47715 9.47715 1.11564e-06 15 8.74228e-07L35 0C40.5229 -2.41411e-07 45 4.47715 45 10V30C45 35.5229 40.5229 40 35 40H15C9.47715 40 5 35.5229 5 30V10ZM37.4211 3.50878C39.7465 3.50878 41.6316 5.39389 41.6316 7.7193C41.6316 10.0447 39.7465 11.9298 37.4211 11.9298C35.0956 11.9298 33.2105 10.0447 33.2105 7.7193C33.2105 5.39389 35.0956 3.50878 37.4211 3.50878ZM68.4148 37V2.09091H61.0341V37H68.4148ZM88.325 16.2727V10.8182H83.3988V4.54546H76.1375V10.8182H72.5579V16.2727H76.1375V29.9091C76.1261 31.625 76.4841 33.0455 77.2113 34.1705C77.9386 35.2955 78.9557 36.125 80.2625 36.6591C81.5807 37.1932 83.1148 37.4261 84.8648 37.358C85.8079 37.3239 86.6091 37.2273 87.2682 37.0682C87.9273 36.9205 88.4386 36.7898 88.8023 36.6761L87.6602 31.2727C87.4784 31.3068 87.217 31.358 86.8761 31.4261C86.5352 31.483 86.1943 31.5114 85.8534 31.5114C85.3648 31.5114 84.9329 31.4375 84.5579 31.2898C84.1943 31.1421 83.9102 30.8864 83.7057 30.5227C83.5011 30.1477 83.3988 29.625 83.3988 28.9546V16.2727H88.325ZM100.36 5.77273V2.09091H94.9057V5.80682C94.9057 7.25 94.6841 8.51705 94.2409 9.60796C93.8091 10.6989 93.3091 11.6932 92.7409 12.5909L95.9454 14.483C96.7409 13.8125 97.4738 13 98.1443 12.0455C98.8148 11.0795 99.3488 10.0568 99.7466 8.97728C100.156 7.88637 100.36 6.81819 100.36 5.77273ZM117.1 18.6932L123.748 18.2841C123.43 15.875 122.316 13.9716 120.407 12.5739C118.509 11.1761 115.907 10.4773 112.6 10.4773C110.361 10.4773 108.407 10.8068 106.736 11.4659C105.077 12.125 103.787 13.0625 102.867 14.2784C101.958 15.4943 101.503 16.9432 101.503 18.625C101.503 20.5795 102.123 22.1875 103.361 23.4489C104.611 24.7102 106.515 25.5966 109.072 26.108L113.606 27.0114C114.742 27.2386 115.583 27.5682 116.128 28C116.674 28.4205 116.952 28.9602 116.964 29.6193C116.952 30.4034 116.555 31.0455 115.77 31.5455C114.998 32.0341 113.975 32.2784 112.702 32.2784C111.407 32.2784 110.344 32.0057 109.515 31.4602C108.685 30.9034 108.162 30.0966 107.947 29.0398L100.805 29.4148C101.157 31.9148 102.356 33.892 104.401 35.3466C106.458 36.7898 109.219 37.5114 112.685 37.5114C114.958 37.5114 116.964 37.1534 118.702 36.4375C120.452 35.7102 121.827 34.6989 122.827 33.4034C123.839 32.108 124.344 30.6023 124.344 28.8864C124.344 27 123.719 25.4773 122.469 24.3182C121.219 23.1591 119.322 22.3182 116.776 21.7955L112.037 20.8409C110.822 20.5795 109.964 20.233 109.464 19.8011C108.964 19.3693 108.714 18.8409 108.714 18.2159C108.714 17.4318 109.1 16.8068 109.873 16.3409C110.645 15.8636 111.594 15.625 112.719 15.625C113.56 15.625 114.282 15.767 114.884 16.0511C115.498 16.3239 115.992 16.6932 116.367 17.1591C116.742 17.6136 116.986 18.125 117.1 18.6932ZM143.122 36.625C144.429 37.2045 145.918 37.4943 147.588 37.4943C148.883 37.4943 150.026 37.3239 151.014 36.983C152.003 36.6307 152.849 36.1477 153.554 35.5341C154.258 34.9091 154.821 34.1875 155.241 33.3693H155.446V37H162.332V19.3409C162.332 17.7841 162.031 16.4489 161.429 15.3352C160.827 14.2102 160.003 13.2898 158.957 12.5739C157.923 11.858 156.736 11.3295 155.395 10.9886C154.065 10.6477 152.673 10.4773 151.219 10.4773C149.128 10.4773 147.287 10.7955 145.696 11.4318C144.116 12.0568 142.827 12.9545 141.827 14.125C140.827 15.2841 140.156 16.6591 139.815 18.25L146.531 18.7955C146.781 17.9318 147.293 17.2159 148.065 16.6477C148.838 16.0682 149.878 15.7784 151.185 15.7784C152.423 15.7784 153.378 16.0739 154.048 16.6648C154.73 17.2557 155.071 18.0909 155.071 19.1705V19.2727C155.071 19.8295 154.861 20.25 154.44 20.5341C154.02 20.8182 153.344 21.0341 152.412 21.1818C151.48 21.3182 150.253 21.4659 148.73 21.625C147.435 21.75 146.196 21.9659 145.014 22.2727C143.844 22.5795 142.798 23.0341 141.878 23.6364C140.957 24.2386 140.23 25.0341 139.696 26.0227C139.162 27.0114 138.895 28.233 138.895 29.6875C138.895 31.4148 139.27 32.858 140.02 34.017C140.781 35.1648 141.815 36.0341 143.122 36.625ZM152.497 31.8523C151.679 32.2727 150.736 32.483 149.668 32.483C148.554 32.483 147.633 32.2273 146.906 31.7159C146.19 31.1932 145.832 30.4375 145.832 29.4489C145.832 28.767 146.008 28.1989 146.361 27.7443C146.713 27.2784 147.207 26.9091 147.844 26.6364C148.48 26.3636 149.224 26.1648 150.077 26.0398C150.474 25.983 150.918 25.9205 151.406 25.8523C151.895 25.7727 152.383 25.6875 152.872 25.5966C153.361 25.4943 153.798 25.3864 154.185 25.2727C154.582 25.1477 154.895 25.0114 155.122 24.8636V27.6421C155.122 28.5625 154.889 29.3864 154.423 30.1136C153.957 30.8409 153.315 31.4205 152.497 31.8523ZM175.275 37V21.8636C175.287 20.7386 175.497 19.7784 175.906 18.983C176.326 18.1761 176.906 17.5625 177.645 17.142C178.395 16.7216 179.258 16.5114 180.235 16.5114C181.69 16.5114 182.832 16.9659 183.662 17.875C184.491 18.7727 184.9 20.0227 184.889 21.625V37H192.15V20.3295C192.15 18.2955 191.775 16.5455 191.025 15.0795C190.275 13.6023 189.224 12.4659 187.872 11.6705C186.52 10.875 184.934 10.4773 183.116 10.4773C181.173 10.4773 179.52 10.9261 178.156 11.8239C176.792 12.7102 175.821 13.9148 175.241 15.4375H174.934V10.8182H168.014V37H175.275ZM209.215 2.09091V37H216.596V25.6818H222.8C225.482 25.6818 227.766 25.1875 229.652 24.1989C231.55 23.2102 232.999 21.8295 233.999 20.0568C234.999 18.2841 235.499 16.2386 235.499 13.9205C235.499 11.6023 235.005 9.55682 234.016 7.78409C233.039 6 231.618 4.60796 229.755 3.60796C227.891 2.5966 225.635 2.09091 222.988 2.09091H209.215ZM216.596 19.767H221.607C223.027 19.767 224.198 19.5227 225.118 19.0341C226.05 18.5341 226.743 17.8466 227.198 16.9716C227.664 16.0852 227.897 15.0682 227.897 13.9205C227.897 12.7614 227.664 11.75 227.198 10.8864C226.743 10.0114 226.05 9.33523 225.118 8.85796C224.187 8.36932 223.005 8.125 221.573 8.125H216.596V19.767ZM244.692 35.8068C246.624 36.9432 248.931 37.5114 251.612 37.5114C253.942 37.5114 255.959 37.0852 257.664 36.233C259.368 35.3807 260.703 34.1989 261.669 32.6875C262.646 31.1648 263.192 29.4034 263.306 27.4034H256.453C256.317 28.3239 256.027 29.1136 255.584 29.7727C255.152 30.4205 254.601 30.9148 253.931 31.2557C253.271 31.5966 252.527 31.7671 251.698 31.7671C250.573 31.7671 249.59 31.4602 248.749 30.8466C247.908 30.233 247.254 29.3409 246.789 28.1705C246.334 27 246.107 25.5795 246.107 23.9091C246.107 22.2614 246.34 20.858 246.806 19.6989C247.271 18.5398 247.919 17.6591 248.749 17.0568C249.59 16.4432 250.573 16.1364 251.698 16.1364C253.027 16.1364 254.101 16.5398 254.919 17.3466C255.749 18.142 256.26 19.1932 256.453 20.5H263.306C263.203 18.4773 262.652 16.7159 261.652 15.2159C260.652 13.7159 259.294 12.5511 257.578 11.7216C255.862 10.892 253.862 10.4773 251.578 10.4773C248.931 10.4773 246.646 11.0511 244.726 12.1989C242.806 13.3352 241.323 14.9205 240.277 16.9545C239.243 18.9773 238.726 21.3296 238.726 24.0114C238.726 26.6591 239.237 29 240.26 31.0341C241.294 33.0682 242.771 34.6591 244.692 35.8068Z" fill="#1D1D1F"/>
</g>
<defs>
<clipPath id="clip0_34_6">
<rect width="268" height="40" fill="white"/>
</clipPath>
</defs>
</svg>
