<svg width="20" height="20" viewBox="0 0 20 20" fill="none" xmlns="http://www.w3.org/2000/svg">
<g clip-path="url(#clip0_4_52)">
<path fill-rule="evenodd" clip-rule="evenodd" d="M5 -2.12591e-06C2.23858 -2.0052e-06 -7.76376e-07 2.23857 -6.55671e-07 5L-2.18557e-07 15C-9.78513e-08 17.7614 2.23858 20 5 20L15 20C17.7614 20 20 17.7614 20 15L20 5C20 2.23857 17.7614 -2.68373e-06 15 -2.56302e-06L5 -2.12591e-06ZM18.3157 3.85964C18.3157 2.69694 17.3732 1.75438 16.2105 1.75438C15.0478 1.75438 14.1052 2.69694 14.1052 3.85964C14.1052 5.02235 15.0478 5.96491 16.2105 5.96491C17.3732 5.9649 18.3157 5.02235 18.3157 3.85964Z" fill="white"/>
</g>
<defs>
<clipPath id="clip0_4_52">
<rect width="20" height="20" fill="white"/>
</clipPath>
</defs>
</svg>
