<svg width="26" height="26" viewBox="0 0 26 26" fill="none" xmlns="http://www.w3.org/2000/svg">
<path fill-rule="evenodd" clip-rule="evenodd" d="M11.2895 1.71052C11.2895 0.765828 12.0553 0 13 0C13.9447 0 14.7106 0.765829 14.7106 1.71053V4.44737C14.7106 5.39207 13.9447 6.15789 13 6.15789C12.0553 6.15789 11.2895 5.39207 11.2895 4.44737V1.71052ZM19.1579 13C19.1579 16.4009 16.4009 19.1579 13 19.1579C9.59908 19.1579 6.8421 16.4009 6.8421 13C6.8421 9.59909 9.59908 6.8421 13 6.8421C16.4009 6.8421 19.1579 9.59909 19.1579 13ZM3.94636 22.3312C4.61436 22.9992 5.6974 22.9992 6.3654 22.3312L8.30065 20.3959C8.96865 19.7279 8.96865 18.6449 8.30065 17.9769C7.63264 17.3089 6.5496 17.3089 5.8816 17.9769L3.94636 19.9121C3.27835 20.5801 3.27835 21.6632 3.94636 22.3312ZM22.3311 19.57C22.9991 20.238 22.9991 21.321 22.3311 21.989C21.6631 22.657 20.5801 22.6571 19.9121 21.989L17.9768 20.0538C17.3088 19.3858 17.3088 18.3028 17.9768 17.6348C18.6448 16.9668 19.7279 16.9668 20.3959 17.6348L22.3311 19.57ZM26 13C26 12.0553 25.2342 11.2895 24.2895 11.2895H21.5526C20.6079 11.2895 19.8421 12.0553 19.8421 13C19.8421 13.9447 20.6079 14.7105 21.5526 14.7105H24.2895C25.2342 14.7105 26 13.9447 26 13ZM20.3959 8.30065C19.7279 8.96866 18.6449 8.96865 17.9769 8.30065C17.3089 7.63265 17.3089 6.5496 17.9769 5.8816L19.9121 3.94636C20.5801 3.27836 21.6632 3.27836 22.3312 3.94636C22.9992 4.61437 22.9992 5.69741 22.3312 6.36541L20.3959 8.30065ZM13 19.8421C12.0553 19.8421 11.2895 20.6079 11.2895 21.5526V24.2895C11.2895 25.2342 12.0553 26 13 26C13.9447 26 14.7105 25.2342 14.7105 24.2895V21.5526C14.7105 20.6079 13.9447 19.8421 13 19.8421ZM8.30067 5.5395C8.96867 6.2075 8.96867 7.29054 8.30066 7.95855C7.63266 8.62655 6.54962 8.62655 5.88162 7.95855L3.94637 6.0233C3.27837 5.3553 3.27837 4.27226 3.94638 3.60426C4.61438 2.93625 5.69742 2.93625 6.36543 3.60426L8.30067 5.5395ZM6.15789 13C6.15789 12.0553 5.39207 11.2895 4.44737 11.2895H1.71053C0.765829 11.2895 4.1294e-08 12.0553 0 13C-4.1294e-08 13.9447 0.765828 14.7105 1.71052 14.7105H4.44737C5.39207 14.7105 6.15789 13.9447 6.15789 13Z" fill="#FFA500"/>
</svg>
