<svg width="48" height="48" viewBox="0 0 48 48" fill="none" xmlns="http://www.w3.org/2000/svg">
<path d="M39.9049 15.8402C39.9293 16.1928 39.9293 16.5455 39.9293 16.9013C39.9293 27.7451 31.6742 40.2513 16.5793 40.2513V40.2448C12.1203 40.2513 7.75381 38.9741 4 36.5658C4.64839 36.6438 5.30002 36.6828 5.95328 36.6844C9.64859 36.6877 13.2383 35.4478 16.1454 33.1646C12.6338 33.098 9.55434 30.8083 8.47857 27.4656C9.70871 27.7029 10.9762 27.6541 12.1836 27.3243C8.35507 26.5507 5.60065 23.1869 5.60065 19.2804C5.60065 19.2446 5.60065 19.2105 5.60065 19.1764C6.74142 19.8118 8.01869 20.1644 9.32521 20.2034C5.71928 17.7935 4.60776 12.9964 6.78529 9.24585C10.9519 14.3728 17.0993 17.4896 23.6986 17.8195C23.0372 14.9692 23.9407 11.9824 26.0727 9.97874C29.378 6.87169 34.5765 7.03094 37.6835 10.3346C39.5214 9.97224 41.283 9.29785 42.895 8.34234C42.2823 10.242 41.0002 11.8556 39.2874 12.881C40.9141 12.6893 42.5034 12.2538 44 11.5891C42.8982 13.2402 41.5105 14.6783 39.9049 15.8402Z" fill="#6E6E73"/>
</svg>
